<?xml version="1.0"?>
<svg xmlns="http://www.w3.org/2000/svg" xmlns:xlink="http://www.w3.org/1999/xlink" xmlns:svgjs="http://svgjs.com/svgjs" version="1.1" width="512" height="512" x="0" y="0" viewBox="0 0 512 512" style="enable-background:new 0 0 512 512" xml:space="preserve"><g><g xmlns="http://www.w3.org/2000/svg"><path d="m108.913.1-63.536 63.535h63.536z" fill="#ffffff" data-original="#000000" style=""/><path d="m280.191 325.469c23.957-23.957 55.81-37.151 89.69-37.151 2.103 0 4.199.051 6.285.152v-288.47h-237.253v93.635h-93.635v343.163h199.592c-1.21-7.079-1.83-14.311-1.83-21.639 0-33.88 13.194-65.733 37.151-89.69zm-173.125-193.1h207.313v30h-207.313zm0 63.735h207.313v30h-207.313zm0 63.734h207.313v30h-207.313z" fill="#ffffff" data-original="#000000" style=""/><path d="m438.358 346.682c-37.819-37.819-99.135-37.819-136.954 0s-37.819 99.135 0 136.954 99.135 37.819 136.954 0 37.819-99.135 0-136.954zm-25.958 83.477h-27.519v27.518h-30v-27.518h-27.518v-30h27.518v-27.519h30v27.519h27.519z" fill="#ffffff" data-original="#000000" style=""/></g></g></svg>
