<?xml version="1.0"?>
<svg xmlns="http://www.w3.org/2000/svg" xmlns:xlink="http://www.w3.org/1999/xlink" xmlns:svgjs="http://svgjs.com/svgjs" version="1.1" width="512" height="512" x="0" y="0" viewBox="0 0 40 40" style="enable-background:new 0 0 512 512" xml:space="preserve" class=""><g>
<g xmlns="http://www.w3.org/2000/svg">
	<path d="M20,0C8.973,0,0,8.973,0,20c0,11.027,8.973,20,20,20c11.027,0,20-8.973,20-20C40,8.973,31.027,0,20,0z M28.796,21.477   l-5.332,6.279c-0.45,0.531-1.094,0.805-1.739,0.805c-0.521,0-1.047-0.179-1.477-0.543c-0.96-0.813-1.078-2.254-0.263-3.215   l2.142-2.521h-9.186c-1.26,0-2.281-1.021-2.281-2.281s1.021-2.281,2.281-2.281h9.186l-2.142-2.521   c-0.815-0.961-0.697-2.4,0.263-3.217c0.96-0.815,2.4-0.697,3.216,0.264l5.332,6.279C29.52,19.375,29.52,20.625,28.796,21.477z" fill="#ffffff" data-original="#000000" style="" class=""/>
</g>
<g xmlns="http://www.w3.org/2000/svg">
</g>
<g xmlns="http://www.w3.org/2000/svg">
</g>
<g xmlns="http://www.w3.org/2000/svg">
</g>
<g xmlns="http://www.w3.org/2000/svg">
</g>
<g xmlns="http://www.w3.org/2000/svg">
</g>
<g xmlns="http://www.w3.org/2000/svg">
</g>
<g xmlns="http://www.w3.org/2000/svg">
</g>
<g xmlns="http://www.w3.org/2000/svg">
</g>
<g xmlns="http://www.w3.org/2000/svg">
</g>
<g xmlns="http://www.w3.org/2000/svg">
</g>
<g xmlns="http://www.w3.org/2000/svg">
</g>
<g xmlns="http://www.w3.org/2000/svg">
</g>
<g xmlns="http://www.w3.org/2000/svg">
</g>
<g xmlns="http://www.w3.org/2000/svg">
</g>
<g xmlns="http://www.w3.org/2000/svg">
</g>
</g></svg>
