<?xml version="1.0"?>
<svg xmlns="http://www.w3.org/2000/svg" xmlns:xlink="http://www.w3.org/1999/xlink" xmlns:svgjs="http://svgjs.com/svgjs" version="1.1" width="512" height="512" x="0" y="0" viewBox="0 0 512 512" style="enable-background:new 0 0 512 512" xml:space="preserve"><g><path xmlns="http://www.w3.org/2000/svg" d="M372.371,153.146l-4.39,3.893a5,5,0,0,0,6.636,7.481l4.389-3.893a5,5,0,1,0-6.635-7.481Z" fill="#0b8bd5" data-original="#000000" style=""/><path xmlns="http://www.w3.org/2000/svg" d="M339.013,130.7a5,5,0,0,0,6.963.165L381.313,98.16l7.665,8.213a5,5,0,0,0,8.594-2.627l9.083-57.258a5,5,0,0,0-5.354-5.766l-58,4.838a5,5,0,0,0-3.24,8.395l7.459,7.992L311.53,95.4a5,5,0,0,0-.162,7.167Z" fill="#0b8bd5" data-original="#000000" style=""/><path xmlns="http://www.w3.org/2000/svg" d="M330.865,145.127l4.2-3.891a5,5,0,1,0-6.793-7.339l-4.2,3.891a5,5,0,0,0,6.793,7.339Z" fill="#0b8bd5" data-original="#000000" style=""/><path xmlns="http://www.w3.org/2000/svg" d="M316.229,158.674l4.2-3.89a5,5,0,1,0-6.793-7.339l-4.2,3.89a5,5,0,1,0,6.793,7.339Z" fill="#0b8bd5" data-original="#000000" style=""/><path xmlns="http://www.w3.org/2000/svg" d="M315.385,217.245a4.982,4.982,0,0,0,3.4-1.338L362.8,175A5,5,0,1,0,356,167.672l-44.017,40.91a5,5,0,0,0,3.4,8.663Z" fill="#0b8bd5" data-original="#000000" style=""/><path xmlns="http://www.w3.org/2000/svg" d="M207.739,136.174a58.261,58.261,0,0,0-32.559,13.442l7.884,7.852a47.125,47.125,0,0,1,24.675-10.212Z" fill="#0b8bd5" data-original="#000000" style=""/><path xmlns="http://www.w3.org/2000/svg" d="M175.982,164.528l-7.889-7.857A57.729,57.729,0,0,0,154.58,189.08h11.168A46.763,46.763,0,0,1,175.982,164.528Z" fill="#0b8bd5" data-original="#000000" style=""/><path xmlns="http://www.w3.org/2000/svg" d="M175.981,223.631a46.77,46.77,0,0,1-10.233-24.551H154.58a57.735,57.735,0,0,0,13.512,32.408Z" fill="#0b8bd5" data-original="#000000" style=""/><path xmlns="http://www.w3.org/2000/svg" d="M270.9,189.08a57.74,57.74,0,0,0-13.514-32.41l-7.889,7.858A46.765,46.765,0,0,1,259.73,189.08Z" fill="#0b8bd5" data-original="#000000" style=""/><path xmlns="http://www.w3.org/2000/svg" d="M217.739,147.256a47.132,47.132,0,0,1,24.676,10.212l7.884-7.852a58.264,58.264,0,0,0-32.56-13.442Z" fill="#0b8bd5" data-original="#000000" style=""/><path xmlns="http://www.w3.org/2000/svg" d="M270.91,199.08H259.73A46.762,46.762,0,0,1,249.5,223.631l7.916,7.884A57.553,57.553,0,0,0,270.91,199.08Z" fill="#0b8bd5" data-original="#000000" style=""/><path xmlns="http://www.w3.org/2000/svg" d="M242.415,230.691A47.124,47.124,0,0,1,217.739,240.9v11.088a58.092,58.092,0,0,0,32.576-13.432Z" fill="#0b8bd5" data-original="#000000" style=""/><path xmlns="http://www.w3.org/2000/svg" d="M250,194.08a37.26,37.26,0,1,0-37.26,37.088A37.216,37.216,0,0,0,250,194.08ZM207.78,214.6a13.316,13.316,0,0,1-5.651-4.19A5,5,0,1,1,210,204.244a3.444,3.444,0,0,0,2.738,1.3,3.183,3.183,0,1,0,0-6.352,13.137,13.137,0,0,1-5.427-25.211v-.026a4.989,4.989,0,0,1,9.966-.344,13.326,13.326,0,0,1,6.072,4.365,5,5,0,1,1-7.872,6.167,3.445,3.445,0,0,0-2.739-1.3,3.183,3.183,0,1,0,0,6.352,13.139,13.139,0,0,1,4.96,25.4,4.973,4.973,0,0,1-9.919,0Z" fill="#0b8bd5" data-original="#000000" style=""/><path xmlns="http://www.w3.org/2000/svg" d="M229.209,74.778a4.978,4.978,0,0,0,3.179-1.143l4.526-3.734a5,5,0,1,0-6.363-7.713l-4.527,3.733a5,5,0,0,0,3.185,8.857Z" fill="#0b8bd5" data-original="#000000" style=""/><path xmlns="http://www.w3.org/2000/svg" d="M170.482,123.223a4.978,4.978,0,0,0,3.179-1.143l46.455-38.322a5,5,0,0,0-6.364-7.714L167.3,114.366a5,5,0,0,0,3.185,8.857Z" fill="#0b8bd5" data-original="#000000" style=""/><path xmlns="http://www.w3.org/2000/svg" d="M293.721,67.917a4.976,4.976,0,0,0,3.188-1.15l5.934-4.918a5,5,0,1,0-6.381-7.7l-5.934,4.918a5,5,0,0,0,3.193,8.849Z" fill="#0b8bd5" data-original="#000000" style=""/><path xmlns="http://www.w3.org/2000/svg" d="M246.065,107.409a4.981,4.981,0,0,0,3.188-1.15l34.9-28.924a5,5,0,1,0-6.381-7.7l-34.9,28.924a5,5,0,0,0,3.193,8.85Z" fill="#0b8bd5" data-original="#000000" style=""/><path xmlns="http://www.w3.org/2000/svg" d="M298.259,110.975a5,5,0,0,0,6.793,7.339l4.2-3.891a5,5,0,0,0-6.793-7.339Z" fill="#0b8bd5" data-original="#000000" style=""/><path xmlns="http://www.w3.org/2000/svg" d="M283.35,131.589a5,5,0,0,0,7.066.273l4.2-3.891a5,5,0,1,0-6.793-7.339l-4.2,3.891A5,5,0,0,0,283.35,131.589Z" fill="#0b8bd5" data-original="#000000" style=""/><path xmlns="http://www.w3.org/2000/svg" d="M175.18,238.543a58.254,58.254,0,0,0,32.559,13.442V240.9a47.12,47.12,0,0,1-24.675-10.212Z" fill="#0b8bd5" data-original="#000000" style=""/><path xmlns="http://www.w3.org/2000/svg" d="M478.624,154.092a14.588,14.588,0,0,0,7.665,2.181,14.768,14.768,0,1,0-13.916-9.988L302.8,281.418a18.26,18.26,0,0,1-11.342,3.961H152.27a27.113,27.113,0,0,0-22.647,12.131L21,461.1V21.76a5,5,0,0,0-10,0V490.24a5,5,0,0,0,5,5H496a5,5,0,0,0,0-10H453.982V173.729ZM65.473,485.24h-10V427.262l10-15.06Zm39.851,0h-10v-118l10-15.06Zm39.855,0h-10l.163-178.266,2.611-3.933a17.1,17.1,0,0,1,7.4-6.212Zm.175-188.412a17.207,17.207,0,0,1,3.258-1.051A17.279,17.279,0,0,0,145.354,296.828ZM185.025,485.24h-10V295.379h10Zm39.852,0h-10V295.379h10Zm39.85,0h-10V295.379h10Zm29.851,0V295.183a28.354,28.354,0,0,0,10-3.062V485.24Zm49.851,0h-10V269l10-7.969Zm39.851,0h-10v-248l10-7.969Zm39.851,0h-10V205.486l10-7.969Z" fill="#0b8bd5" data-original="#000000" style=""/></g></svg>
