<?xml version="1.0"?>
<svg xmlns="http://www.w3.org/2000/svg" xmlns:xlink="http://www.w3.org/1999/xlink" xmlns:svgjs="http://svgjs.com/svgjs" version="1.1" width="512" height="512" x="0" y="0" viewBox="0 0 510.704 510.704" style="enable-background:new 0 0 512 512" xml:space="preserve"><g><path xmlns="http://www.w3.org/2000/svg" d="m416.464 256.137c0-86.595-72.279-157.042-161.112-157.042-88.844 0-161.123 70.447-161.123 157.042s72.278 157.053 161.123 157.053c88.833 0 161.112-70.458 161.112-157.053zm-176.11 92.266v-15.141c-10.757 0-21.425-.896-34.224-9.791-6.809-4.73-8.489-14.081-3.759-20.881 4.729-6.801 14.068-8.491 20.877-3.761 4.049 2.82 8.689 4.391 13.058 4.431h36.074c.08 0 .15.01.23.01 8.728 0 15.997-7.093 15.997-16.071 0-8.851-7.179-16.061-15.997-16.061h-34.514c-25.366 0-46.002-20.662-46.002-46.063 0-23.313 17.657-46.063 48.262-46.063v-15.131c0-8.281 6.709-15.001 14.998-15.001 8.279 0 14.998 6.72 14.998 15.001v15.131c16.155 0 29.926 6.672 39.713 17.141 5.659 6.05 5.339 15.541-.71 21.201-6.049 5.661-15.537 5.34-21.196-.71-4.479-4.791-10.588-7.57-16.777-7.63h-33.294c-8.814 0-15.997 7.18-15.997 16.061 0 8.86 7.179 16.061 16.007 16.061h34.514c25.356 0 45.992 20.671 45.992 46.063 0 23.571-17.912 46.063-48.252 46.063v15.141c0 8.28-6.719 15-14.998 15-8.291 0-15-6.72-15-15z" fill="#ffffff" data-original="#000000" style=""/><path xmlns="http://www.w3.org/2000/svg" d="m116.717 437.717-8.155-57.625c-1.161-8.202-8.759-13.927-16.953-12.75-8.203 1.16-13.911 8.751-12.75 16.953l1.826 12.905c-15.573-19.219-27.973-41.012-36.563-64.5-60.806-166.249 86.042-333.918 257.253-297.396 8.1 1.724 16.07-3.438 17.8-11.54 1.729-8.102-3.438-16.071-11.54-17.8-193.332-41.248-361.023 147.474-291.687 337.041 9.714 26.561 23.73 51.219 41.338 72.975l-14.494-2.784c-8.138-1.561-15.998 3.765-17.561 11.9-1.563 8.136 3.765 15.998 11.9 17.561l60.624 11.646c10.718 3.026 20.442-6.147 18.962-16.586z" fill="#ffffff" data-original="#000000" style=""/><path xmlns="http://www.w3.org/2000/svg" d="m494.757 167.698c-9.714-26.561-23.73-51.219-41.338-72.975l14.495 2.784c8.131 1.56 15.998-3.765 17.561-11.9 1.563-8.136-3.765-15.998-11.9-17.561l-60.636-11.649c-10.779-3.034-20.42 6.215-18.95 16.588l8.155 57.626c1.164 8.227 8.785 13.915 16.953 12.75 8.203-1.16 13.911-8.751 12.75-16.953l-1.826-12.905c15.573 19.219 27.973 41.012 36.563 64.499 60.802 166.24-86.025 333.929-257.253 297.397-8.099-1.728-16.071 3.438-17.8 11.54s3.438 16.071 11.54 17.8c193.329 41.25 361.022-147.472 291.686-337.041z" fill="#ffffff" data-original="#000000" style=""/></g></svg>
