<?xml version="1.0"?>
<svg xmlns="http://www.w3.org/2000/svg" xmlns:xlink="http://www.w3.org/1999/xlink" xmlns:svgjs="http://svgjs.com/svgjs" version="1.1" width="512" height="512" x="0" y="0" viewBox="0 0 512.004 512.004" style="enable-background:new 0 0 512 512" xml:space="preserve" class=""><g>
<g xmlns="http://www.w3.org/2000/svg">
	<g>
		<path d="M287.635,151.836l-102.4-102.4c-1.596-1.604-3.763-2.5-6.033-2.5H8.535c-3.447,0-6.571,2.074-7.885,5.265    c-1.323,3.191-0.589,6.861,1.852,9.301l96.367,96.367L2.502,254.235c-2.44,2.441-3.174,6.11-1.852,9.301    c1.323,3.191,4.437,5.265,7.885,5.265h170.667c2.27,0,4.437-0.896,6.033-2.5l102.4-102.4    C290.971,160.565,290.971,155.172,287.635,151.836z M175.669,251.735H29.134l87.834-87.834c3.336-3.337,3.336-8.73,0-12.066    L29.134,64.002h146.534l93.867,93.867L175.669,251.735z" fill="#ffffff" data-original="#000000" style=""/>
	</g>
</g>
<g xmlns="http://www.w3.org/2000/svg">
	<g>
		<path d="M503.468,217.602h-47.667l53.7-53.7c3.337-3.337,3.337-8.73,0-12.066l-102.4-102.4c-1.596-1.604-3.763-2.5-6.033-2.5    H230.402c-3.447,0-6.571,2.074-7.885,5.265c-1.323,3.191-0.589,6.861,1.852,9.301l96.367,96.367l-96.367,96.367    c-2.441,2.441-3.174,6.11-1.852,9.301c1.323,3.191,4.437,5.265,7.885,5.265h68.267v187.733c0,4.719,3.814,8.533,8.533,8.533    h196.267c4.719,0,8.533-3.814,8.533-8.533v-230.4C512.002,221.416,508.187,217.602,503.468,217.602z M298.668,226.135v25.6    h-47.667l87.834-87.834c3.337-3.337,3.337-8.73,0-12.066l-87.834-87.834h146.534l93.867,93.867l-59.733,59.733H307.202    C302.483,217.602,298.668,221.416,298.668,226.135z M494.935,448.002h-179.2V285.869h179.2V448.002z M494.935,268.802h-179.2    v-34.133h179.2V268.802z" fill="#ffffff" data-original="#000000" style=""/>
	</g>
</g>
<g xmlns="http://www.w3.org/2000/svg">
	<g>
		<path d="M469.335,328.535h-85.333c-4.719,0-8.533,3.814-8.533,8.533s3.814,8.533,8.533,8.533h85.333    c4.719,0,8.533-3.814,8.533-8.533S474.054,328.535,469.335,328.535z" fill="#ffffff" data-original="#000000" style=""/>
	</g>
</g>
<g xmlns="http://www.w3.org/2000/svg">
	<g>
		<path d="M469.335,388.269h-85.333c-4.719,0-8.533,3.814-8.533,8.533s3.814,8.533,8.533,8.533h85.333    c4.719,0,8.533-3.814,8.533-8.533S474.054,388.269,469.335,388.269z" fill="#ffffff" data-original="#000000" style=""/>
	</g>
</g>
<g xmlns="http://www.w3.org/2000/svg">
	<g>
		<path d="M349.868,328.535h-8.533c-4.719,0-8.533,3.814-8.533,8.533s3.814,8.533,8.533,8.533h8.533    c4.719,0,8.533-3.814,8.533-8.533S354.587,328.535,349.868,328.535z" fill="#ffffff" data-original="#000000" style=""/>
	</g>
</g>
<g xmlns="http://www.w3.org/2000/svg">
	<g>
		<path d="M349.868,388.269h-8.533c-4.719,0-8.533,3.814-8.533,8.533s3.814,8.533,8.533,8.533h8.533    c4.719,0,8.533-3.814,8.533-8.533S354.587,388.269,349.868,388.269z" fill="#ffffff" data-original="#000000" style=""/>
	</g>
</g>
<g xmlns="http://www.w3.org/2000/svg">
</g>
<g xmlns="http://www.w3.org/2000/svg">
</g>
<g xmlns="http://www.w3.org/2000/svg">
</g>
<g xmlns="http://www.w3.org/2000/svg">
</g>
<g xmlns="http://www.w3.org/2000/svg">
</g>
<g xmlns="http://www.w3.org/2000/svg">
</g>
<g xmlns="http://www.w3.org/2000/svg">
</g>
<g xmlns="http://www.w3.org/2000/svg">
</g>
<g xmlns="http://www.w3.org/2000/svg">
</g>
<g xmlns="http://www.w3.org/2000/svg">
</g>
<g xmlns="http://www.w3.org/2000/svg">
</g>
<g xmlns="http://www.w3.org/2000/svg">
</g>
<g xmlns="http://www.w3.org/2000/svg">
</g>
<g xmlns="http://www.w3.org/2000/svg">
</g>
<g xmlns="http://www.w3.org/2000/svg">
</g>
</g></svg>
