<?xml version="1.0"?>
<svg xmlns="http://www.w3.org/2000/svg" xmlns:xlink="http://www.w3.org/1999/xlink" xmlns:svgjs="http://svgjs.com/svgjs" version="1.1" width="512" height="512" x="0" y="0" viewBox="0 0 326.502 326.502" style="enable-background:new 0 0 512 512" xml:space="preserve" class=""><g>
<g xmlns="http://www.w3.org/2000/svg">
	<g>
		<path d="M163.251,37.156c-69.642,0-126.095,56.453-126.095,126.095s56.453,126.095,126.095,126.095    s126.095-56.453,126.095-126.095S232.893,37.156,163.251,37.156z M240.737,190.838h-49.9v49.9h-55.173v-49.9h-49.9v-55.173h49.9    v-49.9h55.173v49.9h49.9V190.838z" fill="#ffffff" data-original="#000000" style="" class=""/>
		<path d="M163.251,0C73.088,0,0,73.088,0,163.251s73.088,163.251,163.251,163.251s163.251-73.093,163.251-163.251    S253.414,0,163.251,0z M163.251,310.579c-81.367,0-147.328-65.961-147.328-147.328S81.884,15.923,163.251,15.923    s147.328,65.961,147.328,147.328S244.618,310.579,163.251,310.579z" fill="#ffffff" data-original="#000000" style="" class=""/>
	</g>
</g>
<g xmlns="http://www.w3.org/2000/svg">
</g>
<g xmlns="http://www.w3.org/2000/svg">
</g>
<g xmlns="http://www.w3.org/2000/svg">
</g>
<g xmlns="http://www.w3.org/2000/svg">
</g>
<g xmlns="http://www.w3.org/2000/svg">
</g>
<g xmlns="http://www.w3.org/2000/svg">
</g>
<g xmlns="http://www.w3.org/2000/svg">
</g>
<g xmlns="http://www.w3.org/2000/svg">
</g>
<g xmlns="http://www.w3.org/2000/svg">
</g>
<g xmlns="http://www.w3.org/2000/svg">
</g>
<g xmlns="http://www.w3.org/2000/svg">
</g>
<g xmlns="http://www.w3.org/2000/svg">
</g>
<g xmlns="http://www.w3.org/2000/svg">
</g>
<g xmlns="http://www.w3.org/2000/svg">
</g>
<g xmlns="http://www.w3.org/2000/svg">
</g>
</g></svg>
